<svg width="88" height="88" viewBox="0 0 88 88" fill="none" xmlns="http://www.w3.org/2000/svg">
<rect width="88" height="88" rx="12" fill="white"/>
<path d="M29.9915 64C28.9817 64 28.1385 63.6617 27.462 62.9852C26.7855 62.3087 26.4473 61.4655 26.4473 60.4557V32.4388C26.4473 31.429 26.7855 30.5858 27.462 29.9093C28.1385 29.2328 28.9817 28.8945 29.9915 28.8945H33.8734V24H36.2363V28.8945H51.9325V24H54.1266V28.8945H58.0085C59.0183 28.8945 59.8615 29.2328 60.538 29.9093C61.2145 30.5858 61.5527 31.429 61.5527 32.4388V60.4557C61.5527 61.4655 61.2145 62.3087 60.538 62.9852C59.8615 63.6617 59.0183 64 58.0085 64H29.9915ZM29.9915 61.8059H58.0085C58.346 61.8059 58.6554 61.6653 58.9367 61.384C59.218 61.1027 59.3586 60.7932 59.3586 60.4557V41.2152H28.6414V60.4557C28.6414 60.7932 28.782 61.1027 29.0633 61.384C29.3446 61.6653 29.654 61.8059 29.9915 61.8059ZM28.6414 39.0211H59.3586V32.4388C59.3586 32.1013 59.218 31.7919 58.9367 31.5105C58.6554 31.2293 58.346 31.0886 58.0085 31.0886H29.9915C29.654 31.0886 29.3446 31.2293 29.0633 31.5105C28.782 31.7919 28.6414 32.1013 28.6414 32.4388V39.0211ZM44 48.9789C43.5471 48.9789 43.1526 48.8108 42.8165 48.4747C42.4803 48.1385 42.3123 47.744 42.3123 47.2912C42.3123 46.8383 42.4803 46.4438 42.8165 46.1076C43.1526 45.7714 43.5471 45.6034 44 45.6034C44.4529 45.6034 44.8474 45.7714 45.1835 46.1076C45.5197 46.4438 45.6878 46.8383 45.6878 47.2912C45.6878 47.744 45.5197 48.1385 45.1835 48.4747C44.8474 48.8108 44.4529 48.9789 44 48.9789ZM35.2236 48.9789C34.7707 48.9789 34.3762 48.8108 34.0401 48.4747C33.704 48.1385 33.5359 47.744 33.5359 47.2912C33.5359 46.8383 33.704 46.4438 34.0401 46.1076C34.3762 45.7714 34.7707 45.6034 35.2236 45.6034C35.6765 45.6034 36.071 45.7714 36.4072 46.1076C36.7433 46.4438 36.9114 46.8383 36.9114 47.2912C36.9114 47.744 36.7433 48.1385 36.4072 48.4747C36.071 48.8108 35.6765 48.9789 35.2236 48.9789ZM52.7764 48.9789C52.3235 48.9789 51.929 48.8108 51.5928 48.4747C51.2567 48.1385 51.0886 47.744 51.0886 47.2912C51.0886 46.8383 51.2567 46.4438 51.5928 46.1076C51.929 45.7714 52.3235 45.6034 52.7764 45.6034C53.2293 45.6034 53.6238 45.7714 53.9599 46.1076C54.2961 46.4438 54.4641 46.8383 54.4641 47.2912C54.4641 47.744 54.2961 48.1385 53.9599 48.4747C53.6238 48.8108 53.2293 48.9789 52.7764 48.9789ZM44 57.4177C43.5471 57.4177 43.1526 57.2497 42.8165 56.9135C42.4803 56.5774 42.3123 56.1828 42.3123 55.73C42.3123 55.2771 42.4803 54.8826 42.8165 54.5464C43.1526 54.2103 43.5471 54.0422 44 54.0422C44.4529 54.0422 44.8474 54.2103 45.1835 54.5464C45.5197 54.8826 45.6878 55.2771 45.6878 55.73C45.6878 56.1828 45.5197 56.5774 45.1835 56.9135C44.8474 57.2497 44.4529 57.4177 44 57.4177ZM35.2236 57.4177C34.7707 57.4177 34.3762 57.2497 34.0401 56.9135C33.704 56.5774 33.5359 56.1828 33.5359 55.73C33.5359 55.2771 33.704 54.8826 34.0401 54.5464C34.3762 54.2103 34.7707 54.0422 35.2236 54.0422C35.6765 54.0422 36.071 54.2103 36.4072 54.5464C36.7433 54.8826 36.9114 55.2771 36.9114 55.73C36.9114 56.1828 36.7433 56.5774 36.4072 56.9135C36.071 57.2497 35.6765 57.4177 35.2236 57.4177ZM52.7764 57.4177C52.3235 57.4177 51.929 57.2497 51.5928 56.9135C51.2567 56.5774 51.0886 56.1828 51.0886 55.73C51.0886 55.2771 51.2567 54.8826 51.5928 54.5464C51.929 54.2103 52.3235 54.0422 52.7764 54.0422C53.2293 54.0422 53.6238 54.2103 53.9599 54.5464C54.2961 54.8826 54.4641 55.2771 54.4641 55.73C54.4641 56.1828 54.2961 56.5774 53.9599 56.9135C53.6238 57.2497 53.2293 57.4177 52.7764 57.4177Z" fill="#00A0C4"/>
</svg>
