<svg width="88" height="88" viewBox="0 0 88 88" fill="none" xmlns="http://www.w3.org/2000/svg">
<rect width="88" height="88" rx="12" fill="white"/>
<path d="M41.6962 53.4262L50.2068 44.9156C50.4205 44.7018 50.6765 44.5879 50.9747 44.5738C51.2729 44.5598 51.5429 44.6737 51.7848 44.9156C52.0267 45.1575 52.1477 45.4205 52.1477 45.7047C52.1477 45.9888 52.0267 46.2518 51.7848 46.4937L42.9367 55.3418C42.5823 55.6962 42.1688 55.8734 41.6962 55.8734C41.2236 55.8734 40.8101 55.6962 40.4557 55.3418L36.2152 51.1013C36.0014 50.8875 35.8875 50.6315 35.8734 50.3333C35.8593 50.0352 35.9733 49.7651 36.2152 49.5232C36.4571 49.2813 36.7201 49.1603 37.0042 49.1603C37.2883 49.1603 37.5513 49.2813 37.7932 49.5232L41.6962 53.4262ZM29.9915 64C28.9817 64 28.1385 63.6617 27.462 62.9852C26.7855 62.3087 26.4473 61.4655 26.4473 60.4557V32.4388C26.4473 31.429 26.7855 30.5858 27.462 29.9093C28.1385 29.2328 28.9817 28.8945 29.9915 28.8945H33.8734V25.1815C33.8734 24.8411 33.9852 24.5591 34.2089 24.3354C34.4325 24.1118 34.7145 24 35.0549 24C35.3952 24 35.6772 24.1118 35.9008 24.3354C36.1245 24.5591 36.2363 24.8411 36.2363 25.1815V28.8945H51.9325V25.097C51.9325 24.7848 52.0373 24.5239 52.2468 24.3144C52.4564 24.1048 52.7173 24 53.0296 24C53.3418 24 53.6027 24.1048 53.8123 24.3144C54.0218 24.5239 54.1266 24.7848 54.1266 25.097V28.8945H58.0085C59.0183 28.8945 59.8615 29.2328 60.538 29.9093C61.2145 30.5858 61.5527 31.429 61.5527 32.4388V60.4557C61.5527 61.4655 61.2145 62.3087 60.538 62.9852C59.8615 63.6617 59.0183 64 58.0085 64H29.9915ZM29.9915 61.8059H58.0085C58.346 61.8059 58.6554 61.6653 58.9367 61.384C59.218 61.1027 59.3586 60.7932 59.3586 60.4557V41.2152H28.6414V60.4557C28.6414 60.7932 28.782 61.1027 29.0633 61.384C29.3446 61.6653 29.654 61.8059 29.9915 61.8059ZM28.6414 39.0211H59.3586V32.4388C59.3586 32.1013 59.218 31.7919 58.9367 31.5105C58.6554 31.2293 58.346 31.0886 58.0085 31.0886H29.9915C29.654 31.0886 29.3446 31.2293 29.0633 31.5105C28.782 31.7919 28.6414 32.1013 28.6414 32.4388V39.0211Z" fill="#00A0C4"/>
</svg>
