<svg width="88" height="88" viewBox="0 0 88 88" fill="none" xmlns="http://www.w3.org/2000/svg">
<rect width="88" height="88" rx="12" fill="white"/>
<mask id="path-2-outside-1_137_37" maskUnits="userSpaceOnUse" x="22.0855" y="19" width="44" height="50" fill="black">
<rect fill="white" x="22.0855" y="19" width="44" height="50"/>
<path d="M64.4454 33.6779H59.1714C59.0258 31.8444 58.5783 29.9484 57.4933 28.6617C57.1207 28.2169 56.6673 27.8465 56.157 27.5703C56.7041 26.8841 57.0465 26.0574 57.1447 25.1853C57.243 24.3132 57.0931 23.4311 56.7123 22.6404C56.3315 21.8497 55.7352 21.1826 54.9921 20.7157C54.249 20.2488 53.3892 20.0011 52.5116 20.0011C51.634 20.0011 50.7742 20.2488 50.0311 20.7157C49.288 21.1826 48.6918 21.8497 48.311 22.6404C47.9302 23.4311 47.7803 24.3132 47.8785 25.1853C47.9767 26.0574 48.3191 26.8841 48.8662 27.5703C48.3572 27.8466 47.9049 28.2165 47.5332 28.6606C46.4482 29.9473 46.0006 31.8476 45.855 33.6768H42.145C41.9983 31.8433 41.5518 29.9462 40.4668 28.6606C40.0946 28.2158 39.6416 27.8455 39.1316 27.5692C39.6787 26.883 40.0211 26.0563 40.1193 25.1843C40.2176 24.3122 40.0677 23.43 39.6869 22.6394C39.3061 21.8487 38.7098 21.1815 37.9667 20.7146C37.2236 20.2477 36.3638 20 35.4862 20C34.6086 20 33.7488 20.2477 33.0057 20.7146C32.2626 21.1815 31.6664 21.8487 31.2856 22.6394C30.9048 23.43 30.7549 24.3122 30.8531 25.1843C30.9513 26.0563 31.2937 26.883 31.8408 27.5692C31.3313 27.8452 30.8786 28.2151 30.5067 28.6596C29.4217 29.9462 28.9742 31.8466 28.8286 33.6757H23.5546C23.4302 33.6757 23.3109 33.7252 23.2229 33.8131C23.1349 33.9011 23.0855 34.0205 23.0855 34.1449V53.8579C23.0855 53.9195 23.0976 53.9806 23.1212 54.0375C23.1448 54.0944 23.1793 54.1461 23.2229 54.1897C23.2665 54.2332 23.3182 54.2678 23.3751 54.2914C23.432 54.315 23.493 54.3271 23.5546 54.3271H28.8286C28.9742 56.1606 29.4217 58.0566 30.5067 59.3432C30.8786 59.7877 31.3313 60.1576 31.8408 60.4336C31.2941 61.1197 30.9521 61.9462 30.8541 62.818C30.7561 63.6898 30.9061 64.5715 31.2868 65.3619C31.6676 66.1522 32.2637 66.8191 33.0066 67.2857C33.7494 67.7524 34.6089 68 35.4862 68C36.3635 68 37.223 67.7524 37.9659 67.2857C38.7087 66.8191 39.3048 66.1522 39.6856 65.3619C40.0664 64.5715 40.2164 63.6898 40.1184 62.818C40.0204 61.9462 39.6783 61.1197 39.1316 60.4336C39.6413 60.157 40.0943 59.7867 40.4668 59.3422C41.5518 58.0566 41.9994 56.1552 42.145 54.326H45.854C46.0006 56.1541 46.4471 58.0555 47.5332 59.3422C47.9049 59.7863 48.3572 60.1562 48.8662 60.4325C48.3195 61.1186 47.9775 61.9451 47.8795 62.8169C47.7815 63.6887 47.9315 64.5704 48.3123 65.3608C48.693 66.1511 49.2891 66.818 50.032 67.2847C50.7748 67.7513 51.6343 67.9989 52.5116 67.9989C53.3889 67.9989 54.2484 67.7513 54.9913 67.2847C55.7341 66.818 56.3302 66.1511 56.711 65.3608C57.0918 64.5704 57.2418 63.6887 57.1438 62.8169C57.0458 61.9451 56.7037 61.1186 56.157 60.4325C56.6671 60.1559 57.1204 59.7857 57.4933 59.3411C58.5783 58.0544 59.0258 56.153 59.1714 54.3249H64.4454C64.5698 54.3249 64.6891 54.2755 64.7771 54.1875C64.8651 54.0995 64.9145 53.9802 64.9145 53.8558V34.147C64.9145 34.0226 64.8651 33.9033 64.7771 33.8153C64.6891 33.7273 64.5698 33.6779 64.4454 33.6779ZM52.5116 20.9514C53.2482 20.9514 53.9682 21.1698 54.5806 21.5791C55.1931 21.9883 55.6704 22.5699 55.9522 23.2504C56.2341 23.9309 56.3079 24.6797 56.1642 25.4021C56.0205 26.1245 55.6658 26.788 55.145 27.3089C54.6241 27.8297 53.9606 28.1844 53.2382 28.3281C52.5158 28.4718 51.767 28.398 51.0865 28.1162C50.406 27.8343 49.8244 27.357 49.4151 26.7445C49.0059 26.1321 48.7875 25.4121 48.7875 24.6755C48.7878 23.6877 49.1802 22.7404 49.8785 22.0417C50.5767 21.3431 51.5238 20.9501 52.5116 20.9493V20.9514ZM48.2504 29.2689C48.606 28.8438 49.0543 28.5058 49.5608 28.281C50.3927 28.9641 51.4358 29.3375 52.5122 29.3375C53.5886 29.3375 54.6316 28.9641 55.4635 28.281C55.9705 28.5066 56.4194 28.8448 56.7761 29.27C57.7953 30.479 58.1781 32.3524 58.2741 34.1298C58.2736 34.1366 58.2736 34.1434 58.2741 34.1503C58.2757 34.1612 58.2778 34.172 58.2806 34.1826C58.3465 35.7533 58.2529 37.3267 58.0013 38.8785C57.981 38.9967 57.9376 39.1098 57.8737 39.2114C57.8097 39.3129 57.7264 39.4008 57.6284 39.4701C57.5305 39.5394 57.4198 39.5887 57.3028 39.6153C57.1858 39.6418 57.0647 39.6451 56.9465 39.6248C56.8282 39.6045 56.7151 39.5612 56.6136 39.4972C56.5121 39.4333 56.4241 39.3499 56.3548 39.252C56.2855 39.154 56.2362 39.0434 56.2097 38.9264C56.1831 38.8094 56.1799 38.6883 56.2001 38.57C56.4633 37.018 56.7469 33.5269 55.9391 31.4303C55.9189 31.3701 55.8868 31.3146 55.8445 31.2672C55.8023 31.2198 55.751 31.1814 55.6935 31.1544C55.6361 31.1274 55.5738 31.1123 55.5103 31.11C55.4469 31.1077 55.3836 31.1183 55.3244 31.1411C55.2652 31.1639 55.2112 31.1985 55.1656 31.2427C55.1201 31.2869 55.084 31.3399 55.0595 31.3985C55.035 31.4571 55.0227 31.52 55.0231 31.5834C55.0236 31.6469 55.0369 31.7096 55.0623 31.7678C55.2801 32.3851 55.4154 33.0284 55.4646 33.6811H49.5651C49.6149 33.0285 49.7501 32.3852 49.9674 31.7678C50.0122 31.6517 50.009 31.5225 49.9585 31.4088C49.908 31.295 49.8145 31.2059 49.6983 31.1612C49.5822 31.1164 49.453 31.1196 49.3393 31.1701C49.2255 31.2205 49.1364 31.3141 49.0917 31.4303C48.2828 33.5269 48.5675 37.018 48.8307 38.57C48.864 38.8057 48.8043 39.0451 48.664 39.2373C48.5237 39.4296 48.314 39.5596 48.0794 39.5998C47.8448 39.6399 47.6038 39.5871 47.4076 39.4524C47.2113 39.3177 47.0753 39.1118 47.0285 38.8785C46.7768 37.3267 46.6836 35.7533 46.7502 34.1826C46.7502 34.1718 46.7567 34.1621 46.7567 34.1503C46.7567 34.1384 46.7567 34.1373 46.7567 34.1298C46.8494 32.3545 47.2355 30.4758 48.2504 29.2668V29.2689ZM35.4851 20.9493C36.2217 20.9491 36.9419 21.1673 37.5544 21.5764C38.167 21.9855 38.6445 22.567 38.9265 23.2475C39.2086 23.9279 39.2825 24.6768 39.1389 25.3993C38.9953 26.1217 38.6407 26.7854 38.1199 27.3063C37.5992 27.8273 36.9356 28.1821 36.2132 28.3258C35.4907 28.4696 34.7419 28.3959 34.0613 28.1141C33.3808 27.8323 32.7991 27.3549 32.3898 26.7425C31.9806 26.13 31.7621 25.41 31.7621 24.6734C31.7633 23.6862 32.1558 22.7398 32.8538 22.0417C33.5517 21.3436 34.498 20.9507 35.4851 20.9493ZM31.2239 29.2668C31.5795 28.8416 32.0278 28.5037 32.5343 28.2788C33.3662 28.962 34.4093 29.3354 35.4857 29.3354C36.5621 29.3354 37.6052 28.962 38.437 28.2788C38.9442 28.5041 39.3932 28.8424 39.7496 29.2678C40.7688 30.4758 41.1516 32.3513 41.2466 34.1298C41.2466 34.1362 41.2466 34.1416 41.2466 34.1481C41.2466 34.1546 41.2519 34.1675 41.2519 34.1772C41.3186 35.7489 41.2258 37.3233 40.9748 38.8763C40.9279 39.1097 40.7919 39.3155 40.5957 39.4502C40.3994 39.5849 40.1584 39.6378 39.9238 39.5976C39.6892 39.5575 39.4795 39.4275 39.3392 39.2352C39.199 39.0429 39.1392 38.8035 39.1726 38.5679C39.4357 37.0159 39.7205 33.5247 38.9116 31.4281C38.8668 31.312 38.7777 31.2184 38.664 31.1679C38.5502 31.1175 38.421 31.1142 38.3049 31.159C38.1888 31.2038 38.0952 31.2928 38.0447 31.4066C37.9943 31.5204 37.9911 31.6495 38.0358 31.7657C38.2526 32.3832 38.3878 33.0264 38.4381 33.679H32.5397C32.589 33.0263 32.7242 32.3829 32.942 31.7657C32.9806 31.6508 32.9733 31.5255 32.9217 31.4159C32.8702 31.3062 32.7782 31.2207 32.6652 31.1772C32.5521 31.1337 32.4266 31.1355 32.3148 31.1822C32.203 31.2289 32.1136 31.317 32.0652 31.4281C31.2563 33.5247 31.541 37.0159 31.8042 38.5679C31.8451 38.8067 31.7894 39.052 31.6495 39.2498C31.5095 39.4476 31.2967 39.5817 31.0578 39.6226C30.819 39.6635 30.5737 39.6079 30.3759 39.4679C30.1781 39.328 30.044 39.1152 30.0031 38.8763C29.7514 37.3252 29.6579 35.7526 29.7237 34.1826C29.7237 34.1708 29.7302 34.16 29.7302 34.1481C29.7307 34.1409 29.7307 34.1337 29.7302 34.1265C29.824 32.3481 30.2047 30.4747 31.2239 29.2668ZM35.4851 67.0557C34.7486 67.0557 34.0286 66.8373 33.4161 66.4281C32.8037 66.0189 32.3264 65.4372 32.0445 64.7567C31.7626 64.0762 31.6889 63.3275 31.8326 62.6051C31.9763 61.8826 32.331 61.2191 32.8518 60.6982C33.3726 60.1774 34.0362 59.8227 34.7586 59.679C35.481 59.5353 36.2298 59.6091 36.9103 59.891C37.5908 60.1728 38.1724 60.6502 38.5816 61.2626C38.9908 61.875 39.2092 62.595 39.2092 63.3316C39.2081 64.3189 38.8154 65.2655 38.1172 65.9637C37.4191 66.6618 36.4725 67.0546 35.4851 67.0557ZM39.7496 58.7382C39.3932 59.1636 38.9442 59.5019 38.437 59.7272C37.6052 59.0441 36.5621 58.6707 35.4857 58.6707C34.4093 58.6707 33.3662 59.0441 32.5343 59.7272C32.0278 59.5024 31.5795 59.1644 31.2239 58.7393C30.2047 57.5313 29.8219 55.658 29.7259 53.886C29.7263 53.8784 29.7263 53.8709 29.7259 53.8633C29.7259 53.8504 29.7259 53.8396 29.7194 53.8267C29.6535 52.2574 29.7471 50.6855 29.9987 49.1351C30.0395 48.8963 30.1735 48.6834 30.3712 48.5433C30.5689 48.4033 30.8141 48.3475 31.053 48.3883C31.2918 48.429 31.5047 48.563 31.6448 48.7607C31.7848 48.9584 31.8406 49.2037 31.7999 49.4425C31.5367 50.9956 31.252 54.4856 32.0609 56.5833C32.0811 56.6435 32.1132 56.699 32.1555 56.7464C32.1977 56.7938 32.249 56.8322 32.3065 56.8592C32.3639 56.8862 32.4262 56.9013 32.4897 56.9036C32.5531 56.9059 32.6164 56.8953 32.6756 56.8725C32.7348 56.8497 32.7888 56.8151 32.8344 56.7709C32.8799 56.7267 32.916 56.6737 32.9405 56.6151C32.965 56.5565 32.9773 56.4936 32.9769 56.4301C32.9764 56.3667 32.9631 56.3039 32.9377 56.2458C32.7199 55.6285 32.5846 54.9852 32.5354 54.3325H38.4349C38.3846 54.985 38.2494 55.6282 38.0326 56.2458C37.9878 56.3619 37.991 56.4911 38.0415 56.6048C38.092 56.7186 38.1855 56.8077 38.3017 56.8524C38.4178 56.8972 38.547 56.894 38.6607 56.8435C38.7745 56.7931 38.8636 56.6995 38.9083 56.5833C39.7172 54.4867 39.4325 50.9956 39.1693 49.4425C39.1369 49.2072 39.1973 48.9686 39.3377 48.777C39.4781 48.5855 39.6875 48.4561 39.9216 48.4161C40.1557 48.3762 40.3962 48.4289 40.5921 48.5631C40.7881 48.6973 40.9241 48.9024 40.9715 49.1351C41.2225 50.6881 41.3157 52.2625 41.2498 53.8342C41.2471 53.8438 41.245 53.8535 41.2433 53.8633C41.2427 53.8691 41.2427 53.8748 41.2433 53.8806C41.1495 55.6504 40.7645 57.5292 39.7496 58.7382ZM52.5116 67.0557C51.775 67.0559 51.0549 66.8377 50.4423 66.4286C49.8298 66.0195 49.3523 65.438 49.0702 64.7575C48.7882 64.077 48.7143 63.3282 48.8579 62.6057C49.0014 61.8832 49.356 61.2196 49.8768 60.6986C50.3976 60.1777 51.0612 59.8229 51.7836 59.6791C52.506 59.5353 53.2549 59.609 53.9354 59.8909C54.616 60.1727 55.1977 60.65 55.6069 61.2625C56.0162 61.8749 56.2346 62.595 56.2346 63.3316C56.2335 64.3187 55.8409 65.2652 55.143 65.9633C54.4451 66.6614 53.4988 67.0543 52.5116 67.0557ZM56.7761 58.7382C56.4194 59.1634 55.9705 59.5016 55.4635 59.7272C54.6316 59.0441 53.5886 58.6707 52.5122 58.6707C51.4358 58.6707 50.3927 59.0441 49.5608 59.7272C49.0543 59.5024 48.606 59.1644 48.2504 58.7393C47.2301 57.5303 46.8483 55.6569 46.7524 53.8795C46.7524 53.873 46.7524 53.8666 46.7524 53.859C46.7505 53.8477 46.748 53.8366 46.7448 53.8256C46.679 52.2552 46.7726 50.6823 47.0241 49.1308C47.071 48.8975 47.207 48.6916 47.4033 48.5569C47.5995 48.4222 47.8405 48.3693 48.0751 48.4095C48.3097 48.4496 48.5194 48.5797 48.6597 48.7719C48.7999 48.9642 48.8597 49.2036 48.8263 49.4393C48.5632 50.9912 48.2785 54.4824 49.0873 56.579C49.1095 56.6365 49.1428 56.6891 49.1853 56.7337C49.2278 56.7784 49.2786 56.8142 49.3349 56.8392C49.3913 56.8642 49.452 56.8778 49.5136 56.8794C49.5752 56.8809 49.6365 56.8703 49.694 56.8481C49.7515 56.8259 49.8041 56.7927 49.8487 56.7502C49.8934 56.7077 49.9292 56.6568 49.9542 56.6005C49.9792 56.5442 49.9928 56.4835 49.9944 56.4219C49.9959 56.3603 49.9853 56.299 49.9631 56.2414C49.7458 55.6241 49.6106 54.9808 49.5608 54.3282H55.456C55.4067 54.9809 55.2715 55.6242 55.0537 56.2414C55.0151 56.3563 55.0224 56.4816 55.074 56.5913C55.1255 56.7009 55.2174 56.7864 55.3305 56.8299C55.4436 56.8735 55.5691 56.8717 55.6809 56.8249C55.7927 56.7782 55.8821 56.6901 55.9305 56.579C56.7394 54.4824 56.4547 50.9912 56.1915 49.4382C56.1507 49.1993 56.2065 48.9541 56.3466 48.7564C56.4867 48.5587 56.6995 48.4247 56.9384 48.3839C57.1772 48.3432 57.4225 48.399 57.6202 48.539C57.8179 48.6791 57.9519 48.892 57.9926 49.1308C58.2442 50.6823 58.3378 52.2552 58.272 53.8256C58.272 53.8374 58.2655 53.8471 58.2655 53.859C58.2649 53.8658 58.2649 53.8727 58.2655 53.8795C58.176 55.6558 57.7953 57.5292 56.7761 58.7382ZM63.9762 53.3855H59.2221C59.258 51.9055 59.1576 50.4253 58.9223 48.9636C58.8396 48.4794 58.568 48.0478 58.1671 47.7638C57.7662 47.4798 57.269 47.3667 56.7847 47.4494C56.3004 47.5321 55.8688 47.8037 55.5849 48.2046C55.3009 48.6055 55.1878 49.1028 55.2705 49.587C55.4712 50.8427 55.5546 52.1144 55.5196 53.3855H49.5058C49.4713 52.1158 49.5551 50.8456 49.756 49.5913C49.8387 49.1071 49.7256 48.6098 49.4416 48.2089C49.1576 47.808 48.7261 47.5364 48.2418 47.4537C47.7575 47.3711 47.2603 47.4841 46.8594 47.7681C46.4585 48.0521 46.1868 48.4837 46.1042 48.968C45.8683 50.4295 45.7679 51.9098 45.8044 53.3899H42.1956C42.2314 51.9098 42.1311 50.4296 41.8958 48.968C41.8132 48.4837 41.5415 48.0521 41.1406 47.7681C40.7397 47.4841 40.2425 47.3711 39.7582 47.4537C39.2739 47.5364 38.8424 47.808 38.5584 48.2089C38.2744 48.6098 38.1613 49.1071 38.244 49.5913C38.445 50.8456 38.5284 52.1158 38.4931 53.3855H32.4804C32.4456 52.1158 32.529 50.8456 32.7295 49.5913C32.8122 49.1071 32.6991 48.6098 32.4151 48.2089C32.1312 47.808 31.6996 47.5364 31.2153 47.4537C30.731 47.3711 30.2338 47.4841 29.8329 47.7681C29.432 48.0521 29.1604 48.4837 29.0777 48.968C28.8424 50.4296 28.742 51.9098 28.7779 53.3899H24.0238V34.6194H28.7779C28.7423 36.0977 28.8426 37.5761 29.0777 39.0359C29.15 39.4672 29.373 39.8588 29.7069 40.141C30.0409 40.4232 30.4642 40.5778 30.9015 40.5771C31.0066 40.5766 31.1116 40.5676 31.2153 40.5502C31.6982 40.4658 32.1281 40.1937 32.411 39.7934C32.694 39.3931 32.8069 38.897 32.7252 38.4136C32.5262 37.1592 32.4442 35.889 32.4804 34.6194H38.4931C38.5284 35.8892 38.445 37.1594 38.244 38.4136C38.1626 38.897 38.2756 39.3929 38.5585 39.7931C38.8414 40.1934 39.2711 40.4656 39.7539 40.5502C39.8576 40.5676 39.9626 40.5766 40.0677 40.5771C40.505 40.5778 40.9283 40.4232 41.2623 40.141C41.5963 39.8588 41.8192 39.4672 41.8915 39.0359C42.128 37.5762 42.2298 36.0978 42.1956 34.6194H45.8044C45.7679 36.0995 45.8683 37.5797 46.1042 39.0413C46.1767 39.4724 46.3998 39.8637 46.7337 40.1457C47.0677 40.4277 47.4908 40.5821 47.9279 40.5814C48.0328 40.581 48.1374 40.572 48.2407 40.5545C48.7245 40.4711 49.1555 40.1995 49.4395 39.7991C49.7235 39.3987 49.8373 38.9021 49.756 38.4179C49.5548 37.1623 49.4711 35.8906 49.5058 34.6194H55.5196C55.5544 35.8891 55.471 37.1594 55.2705 38.4136C55.1885 38.897 55.3013 39.3932 55.5843 39.7937C55.8673 40.1941 56.2973 40.4661 56.7804 40.5502C56.8841 40.5676 56.9891 40.5766 57.0942 40.5771C57.5313 40.5776 57.9543 40.4231 58.2882 40.1412C58.6221 39.8592 58.8453 39.468 58.918 39.037C59.1533 37.5754 59.2537 36.0952 59.2178 34.6151H63.9719L63.9762 53.3855Z"/>
</mask>
<path d="M64.4454 33.6779H59.1714C59.0258 31.8444 58.5783 29.9484 57.4933 28.6617C57.1207 28.2169 56.6673 27.8465 56.157 27.5703C56.7041 26.8841 57.0465 26.0574 57.1447 25.1853C57.243 24.3132 57.0931 23.4311 56.7123 22.6404C56.3315 21.8497 55.7352 21.1826 54.9921 20.7157C54.249 20.2488 53.3892 20.0011 52.5116 20.0011C51.634 20.0011 50.7742 20.2488 50.0311 20.7157C49.288 21.1826 48.6918 21.8497 48.311 22.6404C47.9302 23.4311 47.7803 24.3132 47.8785 25.1853C47.9767 26.0574 48.3191 26.8841 48.8662 27.5703C48.3572 27.8466 47.9049 28.2165 47.5332 28.6606C46.4482 29.9473 46.0006 31.8476 45.855 33.6768H42.145C41.9983 31.8433 41.5518 29.9462 40.4668 28.6606C40.0946 28.2158 39.6416 27.8455 39.1316 27.5692C39.6787 26.883 40.0211 26.0563 40.1193 25.1843C40.2176 24.3122 40.0677 23.43 39.6869 22.6394C39.3061 21.8487 38.7098 21.1815 37.9667 20.7146C37.2236 20.2477 36.3638 20 35.4862 20C34.6086 20 33.7488 20.2477 33.0057 20.7146C32.2626 21.1815 31.6664 21.8487 31.2856 22.6394C30.9048 23.43 30.7549 24.3122 30.8531 25.1843C30.9513 26.0563 31.2937 26.883 31.8408 27.5692C31.3313 27.8452 30.8786 28.2151 30.5067 28.6596C29.4217 29.9462 28.9742 31.8466 28.8286 33.6757H23.5546C23.4302 33.6757 23.3109 33.7252 23.2229 33.8131C23.1349 33.9011 23.0855 34.0205 23.0855 34.1449V53.8579C23.0855 53.9195 23.0976 53.9806 23.1212 54.0375C23.1448 54.0944 23.1793 54.1461 23.2229 54.1897C23.2665 54.2332 23.3182 54.2678 23.3751 54.2914C23.432 54.315 23.493 54.3271 23.5546 54.3271H28.8286C28.9742 56.1606 29.4217 58.0566 30.5067 59.3432C30.8786 59.7877 31.3313 60.1576 31.8408 60.4336C31.2941 61.1197 30.9521 61.9462 30.8541 62.818C30.7561 63.6898 30.9061 64.5715 31.2868 65.3619C31.6676 66.1522 32.2637 66.8191 33.0066 67.2857C33.7494 67.7524 34.6089 68 35.4862 68C36.3635 68 37.223 67.7524 37.9659 67.2857C38.7087 66.8191 39.3048 66.1522 39.6856 65.3619C40.0664 64.5715 40.2164 63.6898 40.1184 62.818C40.0204 61.9462 39.6783 61.1197 39.1316 60.4336C39.6413 60.157 40.0943 59.7867 40.4668 59.3422C41.5518 58.0566 41.9994 56.1552 42.145 54.326H45.854C46.0006 56.1541 46.4471 58.0555 47.5332 59.3422C47.9049 59.7863 48.3572 60.1562 48.8662 60.4325C48.3195 61.1186 47.9775 61.9451 47.8795 62.8169C47.7815 63.6887 47.9315 64.5704 48.3123 65.3608C48.693 66.1511 49.2891 66.818 50.032 67.2847C50.7748 67.7513 51.6343 67.9989 52.5116 67.9989C53.3889 67.9989 54.2484 67.7513 54.9913 67.2847C55.7341 66.818 56.3302 66.1511 56.711 65.3608C57.0918 64.5704 57.2418 63.6887 57.1438 62.8169C57.0458 61.9451 56.7037 61.1186 56.157 60.4325C56.6671 60.1559 57.1204 59.7857 57.4933 59.3411C58.5783 58.0544 59.0258 56.153 59.1714 54.3249H64.4454C64.5698 54.3249 64.6891 54.2755 64.7771 54.1875C64.8651 54.0995 64.9145 53.9802 64.9145 53.8558V34.147C64.9145 34.0226 64.8651 33.9033 64.7771 33.8153C64.6891 33.7273 64.5698 33.6779 64.4454 33.6779ZM52.5116 20.9514C53.2482 20.9514 53.9682 21.1698 54.5806 21.5791C55.1931 21.9883 55.6704 22.5699 55.9522 23.2504C56.2341 23.9309 56.3079 24.6797 56.1642 25.4021C56.0205 26.1245 55.6658 26.788 55.145 27.3089C54.6241 27.8297 53.9606 28.1844 53.2382 28.3281C52.5158 28.4718 51.767 28.398 51.0865 28.1162C50.406 27.8343 49.8244 27.357 49.4151 26.7445C49.0059 26.1321 48.7875 25.4121 48.7875 24.6755C48.7878 23.6877 49.1802 22.7404 49.8785 22.0417C50.5767 21.3431 51.5238 20.9501 52.5116 20.9493V20.9514ZM48.2504 29.2689C48.606 28.8438 49.0543 28.5058 49.5608 28.281C50.3927 28.9641 51.4358 29.3375 52.5122 29.3375C53.5886 29.3375 54.6316 28.9641 55.4635 28.281C55.9705 28.5066 56.4194 28.8448 56.7761 29.27C57.7953 30.479 58.1781 32.3524 58.2741 34.1298C58.2736 34.1366 58.2736 34.1434 58.2741 34.1503C58.2757 34.1612 58.2778 34.172 58.2806 34.1826C58.3465 35.7533 58.2529 37.3267 58.0013 38.8785C57.981 38.9967 57.9376 39.1098 57.8737 39.2114C57.8097 39.3129 57.7264 39.4008 57.6284 39.4701C57.5305 39.5394 57.4198 39.5887 57.3028 39.6153C57.1858 39.6418 57.0647 39.6451 56.9465 39.6248C56.8282 39.6045 56.7151 39.5612 56.6136 39.4972C56.5121 39.4333 56.4241 39.3499 56.3548 39.252C56.2855 39.154 56.2362 39.0434 56.2097 38.9264C56.1831 38.8094 56.1799 38.6883 56.2001 38.57C56.4633 37.018 56.7469 33.5269 55.9391 31.4303C55.9189 31.3701 55.8868 31.3146 55.8445 31.2672C55.8023 31.2198 55.751 31.1814 55.6935 31.1544C55.6361 31.1274 55.5738 31.1123 55.5103 31.11C55.4469 31.1077 55.3836 31.1183 55.3244 31.1411C55.2652 31.1639 55.2112 31.1985 55.1656 31.2427C55.1201 31.2869 55.084 31.3399 55.0595 31.3985C55.035 31.4571 55.0227 31.52 55.0231 31.5834C55.0236 31.6469 55.0369 31.7096 55.0623 31.7678C55.2801 32.3851 55.4154 33.0284 55.4646 33.6811H49.5651C49.6149 33.0285 49.7501 32.3852 49.9674 31.7678C50.0122 31.6517 50.009 31.5225 49.9585 31.4088C49.908 31.295 49.8145 31.2059 49.6983 31.1612C49.5822 31.1164 49.453 31.1196 49.3393 31.1701C49.2255 31.2205 49.1364 31.3141 49.0917 31.4303C48.2828 33.5269 48.5675 37.018 48.8307 38.57C48.864 38.8057 48.8043 39.0451 48.664 39.2373C48.5237 39.4296 48.314 39.5596 48.0794 39.5998C47.8448 39.6399 47.6038 39.5871 47.4076 39.4524C47.2113 39.3177 47.0753 39.1118 47.0285 38.8785C46.7768 37.3267 46.6836 35.7533 46.7502 34.1826C46.7502 34.1718 46.7567 34.1621 46.7567 34.1503C46.7567 34.1384 46.7567 34.1373 46.7567 34.1298C46.8494 32.3545 47.2355 30.4758 48.2504 29.2668V29.2689ZM35.4851 20.9493C36.2217 20.9491 36.9419 21.1673 37.5544 21.5764C38.167 21.9855 38.6445 22.567 38.9265 23.2475C39.2086 23.9279 39.2825 24.6768 39.1389 25.3993C38.9953 26.1217 38.6407 26.7854 38.1199 27.3063C37.5992 27.8273 36.9356 28.1821 36.2132 28.3258C35.4907 28.4696 34.7419 28.3959 34.0613 28.1141C33.3808 27.8323 32.7991 27.3549 32.3898 26.7425C31.9806 26.13 31.7621 25.41 31.7621 24.6734C31.7633 23.6862 32.1558 22.7398 32.8538 22.0417C33.5517 21.3436 34.498 20.9507 35.4851 20.9493ZM31.2239 29.2668C31.5795 28.8416 32.0278 28.5037 32.5343 28.2788C33.3662 28.962 34.4093 29.3354 35.4857 29.3354C36.5621 29.3354 37.6052 28.962 38.437 28.2788C38.9442 28.5041 39.3932 28.8424 39.7496 29.2678C40.7688 30.4758 41.1516 32.3513 41.2466 34.1298C41.2466 34.1362 41.2466 34.1416 41.2466 34.1481C41.2466 34.1546 41.2519 34.1675 41.2519 34.1772C41.3186 35.7489 41.2258 37.3233 40.9748 38.8763C40.9279 39.1097 40.7919 39.3155 40.5957 39.4502C40.3994 39.5849 40.1584 39.6378 39.9238 39.5976C39.6892 39.5575 39.4795 39.4275 39.3392 39.2352C39.199 39.0429 39.1392 38.8035 39.1726 38.5679C39.4357 37.0159 39.7205 33.5247 38.9116 31.4281C38.8668 31.312 38.7777 31.2184 38.664 31.1679C38.5502 31.1175 38.421 31.1142 38.3049 31.159C38.1888 31.2038 38.0952 31.2928 38.0447 31.4066C37.9943 31.5204 37.9911 31.6495 38.0358 31.7657C38.2526 32.3832 38.3878 33.0264 38.4381 33.679H32.5397C32.589 33.0263 32.7242 32.3829 32.942 31.7657C32.9806 31.6508 32.9733 31.5255 32.9217 31.4159C32.8702 31.3062 32.7782 31.2207 32.6652 31.1772C32.5521 31.1337 32.4266 31.1355 32.3148 31.1822C32.203 31.2289 32.1136 31.317 32.0652 31.4281C31.2563 33.5247 31.541 37.0159 31.8042 38.5679C31.8451 38.8067 31.7894 39.052 31.6495 39.2498C31.5095 39.4476 31.2967 39.5817 31.0578 39.6226C30.819 39.6635 30.5737 39.6079 30.3759 39.4679C30.1781 39.328 30.044 39.1152 30.0031 38.8763C29.7514 37.3252 29.6579 35.7526 29.7237 34.1826C29.7237 34.1708 29.7302 34.16 29.7302 34.1481C29.7307 34.1409 29.7307 34.1337 29.7302 34.1265C29.824 32.3481 30.2047 30.4747 31.2239 29.2668ZM35.4851 67.0557C34.7486 67.0557 34.0286 66.8373 33.4161 66.4281C32.8037 66.0189 32.3264 65.4372 32.0445 64.7567C31.7626 64.0762 31.6889 63.3275 31.8326 62.6051C31.9763 61.8826 32.331 61.2191 32.8518 60.6982C33.3726 60.1774 34.0362 59.8227 34.7586 59.679C35.481 59.5353 36.2298 59.6091 36.9103 59.891C37.5908 60.1728 38.1724 60.6502 38.5816 61.2626C38.9908 61.875 39.2092 62.595 39.2092 63.3316C39.2081 64.3189 38.8154 65.2655 38.1172 65.9637C37.4191 66.6618 36.4725 67.0546 35.4851 67.0557ZM39.7496 58.7382C39.3932 59.1636 38.9442 59.5019 38.437 59.7272C37.6052 59.0441 36.5621 58.6707 35.4857 58.6707C34.4093 58.6707 33.3662 59.0441 32.5343 59.7272C32.0278 59.5024 31.5795 59.1644 31.2239 58.7393C30.2047 57.5313 29.8219 55.658 29.7259 53.886C29.7263 53.8784 29.7263 53.8709 29.7259 53.8633C29.7259 53.8504 29.7259 53.8396 29.7194 53.8267C29.6535 52.2574 29.7471 50.6855 29.9987 49.1351C30.0395 48.8963 30.1735 48.6834 30.3712 48.5433C30.5689 48.4033 30.8141 48.3475 31.053 48.3883C31.2918 48.429 31.5047 48.563 31.6448 48.7607C31.7848 48.9584 31.8406 49.2037 31.7999 49.4425C31.5367 50.9956 31.252 54.4856 32.0609 56.5833C32.0811 56.6435 32.1132 56.699 32.1555 56.7464C32.1977 56.7938 32.249 56.8322 32.3065 56.8592C32.3639 56.8862 32.4262 56.9013 32.4897 56.9036C32.5531 56.9059 32.6164 56.8953 32.6756 56.8725C32.7348 56.8497 32.7888 56.8151 32.8344 56.7709C32.8799 56.7267 32.916 56.6737 32.9405 56.6151C32.965 56.5565 32.9773 56.4936 32.9769 56.4301C32.9764 56.3667 32.9631 56.3039 32.9377 56.2458C32.7199 55.6285 32.5846 54.9852 32.5354 54.3325H38.4349C38.3846 54.985 38.2494 55.6282 38.0326 56.2458C37.9878 56.3619 37.991 56.4911 38.0415 56.6048C38.092 56.7186 38.1855 56.8077 38.3017 56.8524C38.4178 56.8972 38.547 56.894 38.6607 56.8435C38.7745 56.7931 38.8636 56.6995 38.9083 56.5833C39.7172 54.4867 39.4325 50.9956 39.1693 49.4425C39.1369 49.2072 39.1973 48.9686 39.3377 48.777C39.4781 48.5855 39.6875 48.4561 39.9216 48.4161C40.1557 48.3762 40.3962 48.4289 40.5921 48.5631C40.7881 48.6973 40.9241 48.9024 40.9715 49.1351C41.2225 50.6881 41.3157 52.2625 41.2498 53.8342C41.2471 53.8438 41.245 53.8535 41.2433 53.8633C41.2427 53.8691 41.2427 53.8748 41.2433 53.8806C41.1495 55.6504 40.7645 57.5292 39.7496 58.7382ZM52.5116 67.0557C51.775 67.0559 51.0549 66.8377 50.4423 66.4286C49.8298 66.0195 49.3523 65.438 49.0702 64.7575C48.7882 64.077 48.7143 63.3282 48.8579 62.6057C49.0014 61.8832 49.356 61.2196 49.8768 60.6986C50.3976 60.1777 51.0612 59.8229 51.7836 59.6791C52.506 59.5353 53.2549 59.609 53.9354 59.8909C54.616 60.1727 55.1977 60.65 55.6069 61.2625C56.0162 61.8749 56.2346 62.595 56.2346 63.3316C56.2335 64.3187 55.8409 65.2652 55.143 65.9633C54.4451 66.6614 53.4988 67.0543 52.5116 67.0557ZM56.7761 58.7382C56.4194 59.1634 55.9705 59.5016 55.4635 59.7272C54.6316 59.0441 53.5886 58.6707 52.5122 58.6707C51.4358 58.6707 50.3927 59.0441 49.5608 59.7272C49.0543 59.5024 48.606 59.1644 48.2504 58.7393C47.2301 57.5303 46.8483 55.6569 46.7524 53.8795C46.7524 53.873 46.7524 53.8666 46.7524 53.859C46.7505 53.8477 46.748 53.8366 46.7448 53.8256C46.679 52.2552 46.7726 50.6823 47.0241 49.1308C47.071 48.8975 47.207 48.6916 47.4033 48.5569C47.5995 48.4222 47.8405 48.3693 48.0751 48.4095C48.3097 48.4496 48.5194 48.5797 48.6597 48.7719C48.7999 48.9642 48.8597 49.2036 48.8263 49.4393C48.5632 50.9912 48.2785 54.4824 49.0873 56.579C49.1095 56.6365 49.1428 56.6891 49.1853 56.7337C49.2278 56.7784 49.2786 56.8142 49.3349 56.8392C49.3913 56.8642 49.452 56.8778 49.5136 56.8794C49.5752 56.8809 49.6365 56.8703 49.694 56.8481C49.7515 56.8259 49.8041 56.7927 49.8487 56.7502C49.8934 56.7077 49.9292 56.6568 49.9542 56.6005C49.9792 56.5442 49.9928 56.4835 49.9944 56.4219C49.9959 56.3603 49.9853 56.299 49.9631 56.2414C49.7458 55.6241 49.6106 54.9808 49.5608 54.3282H55.456C55.4067 54.9809 55.2715 55.6242 55.0537 56.2414C55.0151 56.3563 55.0224 56.4816 55.074 56.5913C55.1255 56.7009 55.2174 56.7864 55.3305 56.8299C55.4436 56.8735 55.5691 56.8717 55.6809 56.8249C55.7927 56.7782 55.8821 56.6901 55.9305 56.579C56.7394 54.4824 56.4547 50.9912 56.1915 49.4382C56.1507 49.1993 56.2065 48.9541 56.3466 48.7564C56.4867 48.5587 56.6995 48.4247 56.9384 48.3839C57.1772 48.3432 57.4225 48.399 57.6202 48.539C57.8179 48.6791 57.9519 48.892 57.9926 49.1308C58.2442 50.6823 58.3378 52.2552 58.272 53.8256C58.272 53.8374 58.2655 53.8471 58.2655 53.859C58.2649 53.8658 58.2649 53.8727 58.2655 53.8795C58.176 55.6558 57.7953 57.5292 56.7761 58.7382ZM63.9762 53.3855H59.2221C59.258 51.9055 59.1576 50.4253 58.9223 48.9636C58.8396 48.4794 58.568 48.0478 58.1671 47.7638C57.7662 47.4798 57.269 47.3667 56.7847 47.4494C56.3004 47.5321 55.8688 47.8037 55.5849 48.2046C55.3009 48.6055 55.1878 49.1028 55.2705 49.587C55.4712 50.8427 55.5546 52.1144 55.5196 53.3855H49.5058C49.4713 52.1158 49.5551 50.8456 49.756 49.5913C49.8387 49.1071 49.7256 48.6098 49.4416 48.2089C49.1576 47.808 48.7261 47.5364 48.2418 47.4537C47.7575 47.3711 47.2603 47.4841 46.8594 47.7681C46.4585 48.0521 46.1868 48.4837 46.1042 48.968C45.8683 50.4295 45.7679 51.9098 45.8044 53.3899H42.1956C42.2314 51.9098 42.1311 50.4296 41.8958 48.968C41.8132 48.4837 41.5415 48.0521 41.1406 47.7681C40.7397 47.4841 40.2425 47.3711 39.7582 47.4537C39.2739 47.5364 38.8424 47.808 38.5584 48.2089C38.2744 48.6098 38.1613 49.1071 38.244 49.5913C38.445 50.8456 38.5284 52.1158 38.4931 53.3855H32.4804C32.4456 52.1158 32.529 50.8456 32.7295 49.5913C32.8122 49.1071 32.6991 48.6098 32.4151 48.2089C32.1312 47.808 31.6996 47.5364 31.2153 47.4537C30.731 47.3711 30.2338 47.4841 29.8329 47.7681C29.432 48.0521 29.1604 48.4837 29.0777 48.968C28.8424 50.4296 28.742 51.9098 28.7779 53.3899H24.0238V34.6194H28.7779C28.7423 36.0977 28.8426 37.5761 29.0777 39.0359C29.15 39.4672 29.373 39.8588 29.7069 40.141C30.0409 40.4232 30.4642 40.5778 30.9015 40.5771C31.0066 40.5766 31.1116 40.5676 31.2153 40.5502C31.6982 40.4658 32.1281 40.1937 32.411 39.7934C32.694 39.3931 32.8069 38.897 32.7252 38.4136C32.5262 37.1592 32.4442 35.889 32.4804 34.6194H38.4931C38.5284 35.8892 38.445 37.1594 38.244 38.4136C38.1626 38.897 38.2756 39.3929 38.5585 39.7931C38.8414 40.1934 39.2711 40.4656 39.7539 40.5502C39.8576 40.5676 39.9626 40.5766 40.0677 40.5771C40.505 40.5778 40.9283 40.4232 41.2623 40.141C41.5963 39.8588 41.8192 39.4672 41.8915 39.0359C42.128 37.5762 42.2298 36.0978 42.1956 34.6194H45.8044C45.7679 36.0995 45.8683 37.5797 46.1042 39.0413C46.1767 39.4724 46.3998 39.8637 46.7337 40.1457C47.0677 40.4277 47.4908 40.5821 47.9279 40.5814C48.0328 40.581 48.1374 40.572 48.2407 40.5545C48.7245 40.4711 49.1555 40.1995 49.4395 39.7991C49.7235 39.3987 49.8373 38.9021 49.756 38.4179C49.5548 37.1623 49.4711 35.8906 49.5058 34.6194H55.5196C55.5544 35.8891 55.471 37.1594 55.2705 38.4136C55.1885 38.897 55.3013 39.3932 55.5843 39.7937C55.8673 40.1941 56.2973 40.4661 56.7804 40.5502C56.8841 40.5676 56.9891 40.5766 57.0942 40.5771C57.5313 40.5776 57.9543 40.4231 58.2882 40.1412C58.6221 39.8592 58.8453 39.468 58.918 39.037C59.1533 37.5754 59.2537 36.0952 59.2178 34.6151H63.9719L63.9762 53.3855Z" fill="#00A0C4"/>
<path d="M64.4454 33.6779H59.1714C59.0258 31.8444 58.5783 29.9484 57.4933 28.6617C57.1207 28.2169 56.6673 27.8465 56.157 27.5703C56.7041 26.8841 57.0465 26.0574 57.1447 25.1853C57.243 24.3132 57.0931 23.4311 56.7123 22.6404C56.3315 21.8497 55.7352 21.1826 54.9921 20.7157C54.249 20.2488 53.3892 20.0011 52.5116 20.0011C51.634 20.0011 50.7742 20.2488 50.0311 20.7157C49.288 21.1826 48.6918 21.8497 48.311 22.6404C47.9302 23.4311 47.7803 24.3132 47.8785 25.1853C47.9767 26.0574 48.3191 26.8841 48.8662 27.5703C48.3572 27.8466 47.9049 28.2165 47.5332 28.6606C46.4482 29.9473 46.0006 31.8476 45.855 33.6768H42.145C41.9983 31.8433 41.5518 29.9462 40.4668 28.6606C40.0946 28.2158 39.6416 27.8455 39.1316 27.5692C39.6787 26.883 40.0211 26.0563 40.1193 25.1843C40.2176 24.3122 40.0677 23.43 39.6869 22.6394C39.3061 21.8487 38.7098 21.1815 37.9667 20.7146C37.2236 20.2477 36.3638 20 35.4862 20C34.6086 20 33.7488 20.2477 33.0057 20.7146C32.2626 21.1815 31.6664 21.8487 31.2856 22.6394C30.9048 23.43 30.7549 24.3122 30.8531 25.1843C30.9513 26.0563 31.2937 26.883 31.8408 27.5692C31.3313 27.8452 30.8786 28.2151 30.5067 28.6596C29.4217 29.9462 28.9742 31.8466 28.8286 33.6757H23.5546C23.4302 33.6757 23.3109 33.7252 23.2229 33.8131C23.1349 33.9011 23.0855 34.0205 23.0855 34.1449V53.8579C23.0855 53.9195 23.0976 53.9806 23.1212 54.0375C23.1448 54.0944 23.1793 54.1461 23.2229 54.1897C23.2665 54.2332 23.3182 54.2678 23.3751 54.2914C23.432 54.315 23.493 54.3271 23.5546 54.3271H28.8286C28.9742 56.1606 29.4217 58.0566 30.5067 59.3432C30.8786 59.7877 31.3313 60.1576 31.8408 60.4336C31.2941 61.1197 30.9521 61.9462 30.8541 62.818C30.7561 63.6898 30.9061 64.5715 31.2868 65.3619C31.6676 66.1522 32.2637 66.8191 33.0066 67.2857C33.7494 67.7524 34.6089 68 35.4862 68C36.3635 68 37.223 67.7524 37.9659 67.2857C38.7087 66.8191 39.3048 66.1522 39.6856 65.3619C40.0664 64.5715 40.2164 63.6898 40.1184 62.818C40.0204 61.9462 39.6783 61.1197 39.1316 60.4336C39.6413 60.157 40.0943 59.7867 40.4668 59.3422C41.5518 58.0566 41.9994 56.1552 42.145 54.326H45.854C46.0006 56.1541 46.4471 58.0555 47.5332 59.3422C47.9049 59.7863 48.3572 60.1562 48.8662 60.4325C48.3195 61.1186 47.9775 61.9451 47.8795 62.8169C47.7815 63.6887 47.9315 64.5704 48.3123 65.3608C48.693 66.1511 49.2891 66.818 50.032 67.2847C50.7748 67.7513 51.6343 67.9989 52.5116 67.9989C53.3889 67.9989 54.2484 67.7513 54.9913 67.2847C55.7341 66.818 56.3302 66.1511 56.711 65.3608C57.0918 64.5704 57.2418 63.6887 57.1438 62.8169C57.0458 61.9451 56.7037 61.1186 56.157 60.4325C56.6671 60.1559 57.1204 59.7857 57.4933 59.3411C58.5783 58.0544 59.0258 56.153 59.1714 54.3249H64.4454C64.5698 54.3249 64.6891 54.2755 64.7771 54.1875C64.8651 54.0995 64.9145 53.9802 64.9145 53.8558V34.147C64.9145 34.0226 64.8651 33.9033 64.7771 33.8153C64.6891 33.7273 64.5698 33.6779 64.4454 33.6779ZM52.5116 20.9514C53.2482 20.9514 53.9682 21.1698 54.5806 21.5791C55.1931 21.9883 55.6704 22.5699 55.9522 23.2504C56.2341 23.9309 56.3079 24.6797 56.1642 25.4021C56.0205 26.1245 55.6658 26.788 55.145 27.3089C54.6241 27.8297 53.9606 28.1844 53.2382 28.3281C52.5158 28.4718 51.767 28.398 51.0865 28.1162C50.406 27.8343 49.8244 27.357 49.4151 26.7445C49.0059 26.1321 48.7875 25.4121 48.7875 24.6755C48.7878 23.6877 49.1802 22.7404 49.8785 22.0417C50.5767 21.3431 51.5238 20.9501 52.5116 20.9493V20.9514ZM48.2504 29.2689C48.606 28.8438 49.0543 28.5058 49.5608 28.281C50.3927 28.9641 51.4358 29.3375 52.5122 29.3375C53.5886 29.3375 54.6316 28.9641 55.4635 28.281C55.9705 28.5066 56.4194 28.8448 56.7761 29.27C57.7953 30.479 58.1781 32.3524 58.2741 34.1298C58.2736 34.1366 58.2736 34.1434 58.2741 34.1503C58.2757 34.1612 58.2778 34.172 58.2806 34.1826C58.3465 35.7533 58.2529 37.3267 58.0013 38.8785C57.981 38.9967 57.9376 39.1098 57.8737 39.2114C57.8097 39.3129 57.7264 39.4008 57.6284 39.4701C57.5305 39.5394 57.4198 39.5887 57.3028 39.6153C57.1858 39.6418 57.0647 39.6451 56.9465 39.6248C56.8282 39.6045 56.7151 39.5612 56.6136 39.4972C56.5121 39.4333 56.4241 39.3499 56.3548 39.252C56.2855 39.154 56.2362 39.0434 56.2097 38.9264C56.1831 38.8094 56.1799 38.6883 56.2001 38.57C56.4633 37.018 56.7469 33.5269 55.9391 31.4303C55.9189 31.3701 55.8868 31.3146 55.8445 31.2672C55.8023 31.2198 55.751 31.1814 55.6935 31.1544C55.6361 31.1274 55.5738 31.1123 55.5103 31.11C55.4469 31.1077 55.3836 31.1183 55.3244 31.1411C55.2652 31.1639 55.2112 31.1985 55.1656 31.2427C55.1201 31.2869 55.084 31.3399 55.0595 31.3985C55.035 31.4571 55.0227 31.52 55.0231 31.5834C55.0236 31.6469 55.0369 31.7096 55.0623 31.7678C55.2801 32.3851 55.4154 33.0284 55.4646 33.6811H49.5651C49.6149 33.0285 49.7501 32.3852 49.9674 31.7678C50.0122 31.6517 50.009 31.5225 49.9585 31.4088C49.908 31.295 49.8145 31.2059 49.6983 31.1612C49.5822 31.1164 49.453 31.1196 49.3393 31.1701C49.2255 31.2205 49.1364 31.3141 49.0917 31.4303C48.2828 33.5269 48.5675 37.018 48.8307 38.57C48.864 38.8057 48.8043 39.0451 48.664 39.2373C48.5237 39.4296 48.314 39.5596 48.0794 39.5998C47.8448 39.6399 47.6038 39.5871 47.4076 39.4524C47.2113 39.3177 47.0753 39.1118 47.0285 38.8785C46.7768 37.3267 46.6836 35.7533 46.7502 34.1826C46.7502 34.1718 46.7567 34.1621 46.7567 34.1503C46.7567 34.1384 46.7567 34.1373 46.7567 34.1298C46.8494 32.3545 47.2355 30.4758 48.2504 29.2668V29.2689ZM35.4851 20.9493C36.2217 20.9491 36.9419 21.1673 37.5544 21.5764C38.167 21.9855 38.6445 22.567 38.9265 23.2475C39.2086 23.9279 39.2825 24.6768 39.1389 25.3993C38.9953 26.1217 38.6407 26.7854 38.1199 27.3063C37.5992 27.8273 36.9356 28.1821 36.2132 28.3258C35.4907 28.4696 34.7419 28.3959 34.0613 28.1141C33.3808 27.8323 32.7991 27.3549 32.3898 26.7425C31.9806 26.13 31.7621 25.41 31.7621 24.6734C31.7633 23.6862 32.1558 22.7398 32.8538 22.0417C33.5517 21.3436 34.498 20.9507 35.4851 20.9493ZM31.2239 29.2668C31.5795 28.8416 32.0278 28.5037 32.5343 28.2788C33.3662 28.962 34.4093 29.3354 35.4857 29.3354C36.5621 29.3354 37.6052 28.962 38.437 28.2788C38.9442 28.5041 39.3932 28.8424 39.7496 29.2678C40.7688 30.4758 41.1516 32.3513 41.2466 34.1298C41.2466 34.1362 41.2466 34.1416 41.2466 34.1481C41.2466 34.1546 41.2519 34.1675 41.2519 34.1772C41.3186 35.7489 41.2258 37.3233 40.9748 38.8763C40.9279 39.1097 40.7919 39.3155 40.5957 39.4502C40.3994 39.5849 40.1584 39.6378 39.9238 39.5976C39.6892 39.5575 39.4795 39.4275 39.3392 39.2352C39.199 39.0429 39.1392 38.8035 39.1726 38.5679C39.4357 37.0159 39.7205 33.5247 38.9116 31.4281C38.8668 31.312 38.7777 31.2184 38.664 31.1679C38.5502 31.1175 38.421 31.1142 38.3049 31.159C38.1888 31.2038 38.0952 31.2928 38.0447 31.4066C37.9943 31.5204 37.9911 31.6495 38.0358 31.7657C38.2526 32.3832 38.3878 33.0264 38.4381 33.679H32.5397C32.589 33.0263 32.7242 32.3829 32.942 31.7657C32.9806 31.6508 32.9733 31.5255 32.9217 31.4159C32.8702 31.3062 32.7782 31.2207 32.6652 31.1772C32.5521 31.1337 32.4266 31.1355 32.3148 31.1822C32.203 31.2289 32.1136 31.317 32.0652 31.4281C31.2563 33.5247 31.541 37.0159 31.8042 38.5679C31.8451 38.8067 31.7894 39.052 31.6495 39.2498C31.5095 39.4476 31.2967 39.5817 31.0578 39.6226C30.819 39.6635 30.5737 39.6079 30.3759 39.4679C30.1781 39.328 30.044 39.1152 30.0031 38.8763C29.7514 37.3252 29.6579 35.7526 29.7237 34.1826C29.7237 34.1708 29.7302 34.16 29.7302 34.1481C29.7307 34.1409 29.7307 34.1337 29.7302 34.1265C29.824 32.3481 30.2047 30.4747 31.2239 29.2668ZM35.4851 67.0557C34.7486 67.0557 34.0286 66.8373 33.4161 66.4281C32.8037 66.0189 32.3264 65.4372 32.0445 64.7567C31.7626 64.0762 31.6889 63.3275 31.8326 62.6051C31.9763 61.8826 32.331 61.2191 32.8518 60.6982C33.3726 60.1774 34.0362 59.8227 34.7586 59.679C35.481 59.5353 36.2298 59.6091 36.9103 59.891C37.5908 60.1728 38.1724 60.6502 38.5816 61.2626C38.9908 61.875 39.2092 62.595 39.2092 63.3316C39.2081 64.3189 38.8154 65.2655 38.1172 65.9637C37.4191 66.6618 36.4725 67.0546 35.4851 67.0557ZM39.7496 58.7382C39.3932 59.1636 38.9442 59.5019 38.437 59.7272C37.6052 59.0441 36.5621 58.6707 35.4857 58.6707C34.4093 58.6707 33.3662 59.0441 32.5343 59.7272C32.0278 59.5024 31.5795 59.1644 31.2239 58.7393C30.2047 57.5313 29.8219 55.658 29.7259 53.886C29.7263 53.8784 29.7263 53.8709 29.7259 53.8633C29.7259 53.8504 29.7259 53.8396 29.7194 53.8267C29.6535 52.2574 29.7471 50.6855 29.9987 49.1351C30.0395 48.8963 30.1735 48.6834 30.3712 48.5433C30.5689 48.4033 30.8141 48.3475 31.053 48.3883C31.2918 48.429 31.5047 48.563 31.6448 48.7607C31.7848 48.9584 31.8406 49.2037 31.7999 49.4425C31.5367 50.9956 31.252 54.4856 32.0609 56.5833C32.0811 56.6435 32.1132 56.699 32.1555 56.7464C32.1977 56.7938 32.249 56.8322 32.3065 56.8592C32.3639 56.8862 32.4262 56.9013 32.4897 56.9036C32.5531 56.9059 32.6164 56.8953 32.6756 56.8725C32.7348 56.8497 32.7888 56.8151 32.8344 56.7709C32.8799 56.7267 32.916 56.6737 32.9405 56.6151C32.965 56.5565 32.9773 56.4936 32.9769 56.4301C32.9764 56.3667 32.9631 56.3039 32.9377 56.2458C32.7199 55.6285 32.5846 54.9852 32.5354 54.3325H38.4349C38.3846 54.985 38.2494 55.6282 38.0326 56.2458C37.9878 56.3619 37.991 56.4911 38.0415 56.6048C38.092 56.7186 38.1855 56.8077 38.3017 56.8524C38.4178 56.8972 38.547 56.894 38.6607 56.8435C38.7745 56.7931 38.8636 56.6995 38.9083 56.5833C39.7172 54.4867 39.4325 50.9956 39.1693 49.4425C39.1369 49.2072 39.1973 48.9686 39.3377 48.777C39.4781 48.5855 39.6875 48.4561 39.9216 48.4161C40.1557 48.3762 40.3962 48.4289 40.5921 48.5631C40.7881 48.6973 40.9241 48.9024 40.9715 49.1351C41.2225 50.6881 41.3157 52.2625 41.2498 53.8342C41.2471 53.8438 41.245 53.8535 41.2433 53.8633C41.2427 53.8691 41.2427 53.8748 41.2433 53.8806C41.1495 55.6504 40.7645 57.5292 39.7496 58.7382ZM52.5116 67.0557C51.775 67.0559 51.0549 66.8377 50.4423 66.4286C49.8298 66.0195 49.3523 65.438 49.0702 64.7575C48.7882 64.077 48.7143 63.3282 48.8579 62.6057C49.0014 61.8832 49.356 61.2196 49.8768 60.6986C50.3976 60.1777 51.0612 59.8229 51.7836 59.6791C52.506 59.5353 53.2549 59.609 53.9354 59.8909C54.616 60.1727 55.1977 60.65 55.6069 61.2625C56.0162 61.8749 56.2346 62.595 56.2346 63.3316C56.2335 64.3187 55.8409 65.2652 55.143 65.9633C54.4451 66.6614 53.4988 67.0543 52.5116 67.0557ZM56.7761 58.7382C56.4194 59.1634 55.9705 59.5016 55.4635 59.7272C54.6316 59.0441 53.5886 58.6707 52.5122 58.6707C51.4358 58.6707 50.3927 59.0441 49.5608 59.7272C49.0543 59.5024 48.606 59.1644 48.2504 58.7393C47.2301 57.5303 46.8483 55.6569 46.7524 53.8795C46.7524 53.873 46.7524 53.8666 46.7524 53.859C46.7505 53.8477 46.748 53.8366 46.7448 53.8256C46.679 52.2552 46.7726 50.6823 47.0241 49.1308C47.071 48.8975 47.207 48.6916 47.4033 48.5569C47.5995 48.4222 47.8405 48.3693 48.0751 48.4095C48.3097 48.4496 48.5194 48.5797 48.6597 48.7719C48.7999 48.9642 48.8597 49.2036 48.8263 49.4393C48.5632 50.9912 48.2785 54.4824 49.0873 56.579C49.1095 56.6365 49.1428 56.6891 49.1853 56.7337C49.2278 56.7784 49.2786 56.8142 49.3349 56.8392C49.3913 56.8642 49.452 56.8778 49.5136 56.8794C49.5752 56.8809 49.6365 56.8703 49.694 56.8481C49.7515 56.8259 49.8041 56.7927 49.8487 56.7502C49.8934 56.7077 49.9292 56.6568 49.9542 56.6005C49.9792 56.5442 49.9928 56.4835 49.9944 56.4219C49.9959 56.3603 49.9853 56.299 49.9631 56.2414C49.7458 55.6241 49.6106 54.9808 49.5608 54.3282H55.456C55.4067 54.9809 55.2715 55.6242 55.0537 56.2414C55.0151 56.3563 55.0224 56.4816 55.074 56.5913C55.1255 56.7009 55.2174 56.7864 55.3305 56.8299C55.4436 56.8735 55.5691 56.8717 55.6809 56.8249C55.7927 56.7782 55.8821 56.6901 55.9305 56.579C56.7394 54.4824 56.4547 50.9912 56.1915 49.4382C56.1507 49.1993 56.2065 48.9541 56.3466 48.7564C56.4867 48.5587 56.6995 48.4247 56.9384 48.3839C57.1772 48.3432 57.4225 48.399 57.6202 48.539C57.8179 48.6791 57.9519 48.892 57.9926 49.1308C58.2442 50.6823 58.3378 52.2552 58.272 53.8256C58.272 53.8374 58.2655 53.8471 58.2655 53.859C58.2649 53.8658 58.2649 53.8727 58.2655 53.8795C58.176 55.6558 57.7953 57.5292 56.7761 58.7382ZM63.9762 53.3855H59.2221C59.258 51.9055 59.1576 50.4253 58.9223 48.9636C58.8396 48.4794 58.568 48.0478 58.1671 47.7638C57.7662 47.4798 57.269 47.3667 56.7847 47.4494C56.3004 47.5321 55.8688 47.8037 55.5849 48.2046C55.3009 48.6055 55.1878 49.1028 55.2705 49.587C55.4712 50.8427 55.5546 52.1144 55.5196 53.3855H49.5058C49.4713 52.1158 49.5551 50.8456 49.756 49.5913C49.8387 49.1071 49.7256 48.6098 49.4416 48.2089C49.1576 47.808 48.7261 47.5364 48.2418 47.4537C47.7575 47.3711 47.2603 47.4841 46.8594 47.7681C46.4585 48.0521 46.1868 48.4837 46.1042 48.968C45.8683 50.4295 45.7679 51.9098 45.8044 53.3899H42.1956C42.2314 51.9098 42.1311 50.4296 41.8958 48.968C41.8132 48.4837 41.5415 48.0521 41.1406 47.7681C40.7397 47.4841 40.2425 47.3711 39.7582 47.4537C39.2739 47.5364 38.8424 47.808 38.5584 48.2089C38.2744 48.6098 38.1613 49.1071 38.244 49.5913C38.445 50.8456 38.5284 52.1158 38.4931 53.3855H32.4804C32.4456 52.1158 32.529 50.8456 32.7295 49.5913C32.8122 49.1071 32.6991 48.6098 32.4151 48.2089C32.1312 47.808 31.6996 47.5364 31.2153 47.4537C30.731 47.3711 30.2338 47.4841 29.8329 47.7681C29.432 48.0521 29.1604 48.4837 29.0777 48.968C28.8424 50.4296 28.742 51.9098 28.7779 53.3899H24.0238V34.6194H28.7779C28.7423 36.0977 28.8426 37.5761 29.0777 39.0359C29.15 39.4672 29.373 39.8588 29.7069 40.141C30.0409 40.4232 30.4642 40.5778 30.9015 40.5771C31.0066 40.5766 31.1116 40.5676 31.2153 40.5502C31.6982 40.4658 32.1281 40.1937 32.411 39.7934C32.694 39.3931 32.8069 38.897 32.7252 38.4136C32.5262 37.1592 32.4442 35.889 32.4804 34.6194H38.4931C38.5284 35.8892 38.445 37.1594 38.244 38.4136C38.1626 38.897 38.2756 39.3929 38.5585 39.7931C38.8414 40.1934 39.2711 40.4656 39.7539 40.5502C39.8576 40.5676 39.9626 40.5766 40.0677 40.5771C40.505 40.5778 40.9283 40.4232 41.2623 40.141C41.5963 39.8588 41.8192 39.4672 41.8915 39.0359C42.128 37.5762 42.2298 36.0978 42.1956 34.6194H45.8044C45.7679 36.0995 45.8683 37.5797 46.1042 39.0413C46.1767 39.4724 46.3998 39.8637 46.7337 40.1457C47.0677 40.4277 47.4908 40.5821 47.9279 40.5814C48.0328 40.581 48.1374 40.572 48.2407 40.5545C48.7245 40.4711 49.1555 40.1995 49.4395 39.7991C49.7235 39.3987 49.8373 38.9021 49.756 38.4179C49.5548 37.1623 49.4711 35.8906 49.5058 34.6194H55.5196C55.5544 35.8891 55.471 37.1594 55.2705 38.4136C55.1885 38.897 55.3013 39.3932 55.5843 39.7937C55.8673 40.1941 56.2973 40.4661 56.7804 40.5502C56.8841 40.5676 56.9891 40.5766 57.0942 40.5771C57.5313 40.5776 57.9543 40.4231 58.2882 40.1412C58.6221 39.8592 58.8453 39.468 58.918 39.037C59.1533 37.5754 59.2537 36.0952 59.2178 34.6151H63.9719L63.9762 53.3855Z" stroke="#00A0C4" stroke-width="0.8" mask="url(#path-2-outside-1_137_37)"/>
</svg>
