<svg width="88" height="88" viewBox="0 0 88 88" fill="none" xmlns="http://www.w3.org/2000/svg">
<rect width="88" height="88" rx="12" fill="white"/>
<path d="M26.96 38.24H56.08V32C56.08 31.68 55.9467 31.3867 55.68 31.12C55.4133 30.8533 55.12 30.72 54.8 30.72H28.24C27.92 30.72 27.6267 30.8533 27.36 31.12C27.0933 31.3867 26.96 31.68 26.96 32V38.24ZM28.24 61.92C27.2827 61.92 26.4833 61.5993 25.842 60.958C25.2007 60.3167 24.88 59.5173 24.88 58.56V32C24.88 31.0427 25.2007 30.2433 25.842 29.602C26.4833 28.9607 27.2827 28.64 28.24 28.64H31.92V24H34.16V28.64H49.04V24H51.12V28.64H54.8C55.7573 28.64 56.5567 28.9607 57.198 29.602C57.8393 30.2433 58.16 31.0427 58.16 32V42.924C57.8213 42.7987 57.4787 42.7053 57.132 42.644C56.7853 42.5827 56.4347 42.5267 56.08 42.476V40.32H26.96V58.56C26.96 58.88 27.0933 59.1733 27.36 59.44C27.6267 59.7067 27.92 59.84 28.24 59.84H42.184C42.2933 60.2293 42.4327 60.5907 42.602 60.924C42.7713 61.2573 42.948 61.5894 43.132 61.92H28.24ZM54.8 64C52.4827 64 50.5166 63.1927 48.902 61.578C47.2873 59.9633 46.48 57.9973 46.48 55.68C46.48 53.3627 47.2873 51.3967 48.902 49.782C50.5166 48.1673 52.4827 47.36 54.8 47.36C57.1173 47.36 59.0833 48.1673 60.698 49.782C62.3127 51.3967 63.12 53.3627 63.12 55.68C63.12 57.9973 62.3127 59.9633 60.698 61.578C59.0833 63.1927 57.1173 64 54.8 64ZM58.244 60.26L59.38 59.124L55.6 55.344V49.68H54V56.016L58.244 60.26Z" fill="#00A0C4"/>
</svg>
