<svg width="17" height="17" viewBox="0 0 17 17" fill="none" xmlns="http://www.w3.org/2000/svg">
<path id="Vector" d="M16.2922 16.3846L10.0306 10.1231C9.53063 10.5487 8.95563 10.8782 8.30563 11.1116C7.65563 11.3449 7.00243 11.4616 6.34601 11.4616C4.74434 11.4616 3.3888 10.9071 2.27938 9.79833C1.16995 8.68951 0.615234 7.3347 0.615234 5.7339C0.615234 4.1331 1.16964 2.77725 2.27846 1.66635C3.38728 0.55545 4.74208 0 6.34288 0C7.9437 0 9.29955 0.554708 10.4104 1.66413C11.5213 2.77354 12.0768 4.12909 12.0768 5.73078C12.0768 6.42564 11.9537 7.09808 11.7076 7.74808C11.4614 8.39808 11.1383 8.95385 10.7383 9.4154L16.9999 15.6769L16.2922 16.3846ZM6.34601 10.4616C7.67294 10.4616 8.79313 10.0048 9.70658 9.09135C10.6201 8.17789 11.0768 7.05769 11.0768 5.73078C11.0768 4.40386 10.6201 3.28367 9.70658 2.3702C8.79313 1.45673 7.67294 1 6.34601 1C5.01909 1 3.8989 1.45673 2.98543 2.3702C2.07198 3.28367 1.61526 4.40386 1.61526 5.73078C1.61526 7.05769 2.07198 8.17789 2.98543 9.09135C3.8989 10.0048 5.01909 10.4616 6.34601 10.4616Z" fill="black"/>
</svg>
